<?xml version="1.0" standalone="no"?>
<!DOCTYPE svg PUBLIC "-//W3C//DTD SVG 20010904//EN"
 "http://www.w3.org/TR/2001/REC-SVG-20010904/DTD/svg10.dtd">
<svg version="1.0" xmlns="http://www.w3.org/2000/svg"
 width="2560.000000pt" height="641.000000pt" viewBox="0 0 2560.000000 641.000000"
 preserveAspectRatio="xMidYMid meet">

<g transform="translate(0.000000,641.000000) scale(0.100000,-0.100000)"
fill="#000000" stroke="none">
<path d="M0 3170 l0 -1601 1463 4 c1442 3 1463 3 1552 24 243 56 413 162 519
322 58 88 89 165 118 291 20 92 23 131 23 320 0 254 -12 322 -82 461 -73 147
-219 277 -375 334 l-47 17 50 39 c94 75 182 208 214 324 26 93 32 388 11 493
-29 143 -86 243 -198 347 -81 76 -155 120 -260 155 -199 68 -89 64 -1610 67
l-1378 4 0 -1601z m2305 824 c63 -32 85 -85 85 -204 0 -111 -22 -170 -78 -207
-61 -40 -108 -43 -692 -43 l-560 0 0 240 0 241 603 -3 c585 -3 603 -4 642 -24z
m89 -1154 c92 -14 147 -40 182 -85 28 -37 29 -44 32 -159 2 -70 -1 -136 -7
-157 -15 -51 -68 -95 -131 -108 -34 -7 -274 -11 -730 -11 l-680 0 0 258 c0
142 3 262 7 265 10 11 1250 8 1327 -3z"/>
<path d="M4029 4766 c-3 -3 7 -104 22 -223 l28 -218 1 -1378 0 -1378 1368 4
c1260 3 1375 4 1472 21 506 87 765 274 884 640 54 165 57 219 53 981 -4 774
-2 752 -71 937 -47 124 -90 191 -186 289 -158 161 -355 248 -690 305 -97 16
-214 18 -1490 21 -762 2 -1388 1 -1391 -1z m2503 -757 c154 -33 246 -139 270
-311 5 -42 8 -276 6 -577 -4 -496 -5 -507 -27 -568 -40 -109 -117 -175 -244
-209 -42 -11 -185 -14 -719 -14 l-668 0 0 845 0 845 665 0 c453 0 681 -4 717
-11z"/>
<path d="M13816 4255 c-56 -20 -86 -45 -110 -91 -18 -33 -21 -57 -21 -154 0
-130 14 -173 69 -215 75 -57 278 -72 378 -27 53 23 103 79 117 129 14 49 14
177 0 226 -16 58 -72 114 -132 132 -65 19 -247 19 -301 0z"/>
<path d="M23540 3520 c-122 -8 -199 -26 -324 -77 l-90 -36 -83 42 -83 41 -160
0 -160 0 0 -920 0 -920 250 0 250 0 0 628 c0 682 3 726 56 805 16 24 43 47 72
60 43 20 63 22 247 22 153 -1 220 -5 285 -18 126 -27 292 -75 377 -109 41 -17
78 -26 83 -22 9 10 140 330 140 343 0 11 -187 85 -293 115 -137 40 -370 59
-567 46z"/>
<path d="M8915 3479 c-140 -16 -224 -50 -302 -122 -51 -47 -86 -110 -111 -200
-15 -55 -17 -121 -17 -597 0 -481 2 -542 18 -599 36 -130 96 -205 206 -257
104 -50 158 -53 793 -54 733 0 970 15 1091 68 77 34 76 40 -16 191 l-82 133
-120 -6 c-66 -3 -210 -10 -320 -16 -110 -5 -369 -11 -575 -12 -364 -3 -376 -2
-415 18 -66 35 -79 69 -84 217 -1 72 1 133 6 138 6 6 95 3 234 -7 170 -13 363
-17 804 -18 l580 -1 3 345 c3 390 -3 447 -55 550 -72 145 -208 207 -504 230
-155 12 -1031 11 -1134 -1z m1137 -371 c50 -22 58 -57 58 -246 l0 -152 -562 2
-563 3 -3 120 c-5 189 13 242 98 279 30 14 96 16 485 13 394 -2 455 -4 487
-19z"/>
<path d="M11448 3480 c-141 -16 -226 -50 -304 -122 -89 -82 -124 -204 -124
-431 0 -201 25 -290 104 -375 53 -57 113 -89 216 -115 69 -18 122 -20 685 -24
680 -5 641 -1 676 -76 28 -64 27 -208 -3 -267 -20 -39 -30 -47 -68 -57 -72
-20 -862 -6 -1375 23 l-110 7 -62 -154 c-70 -177 -70 -176 25 -203 114 -31
236 -36 967 -36 799 1 831 3 949 58 131 61 182 145 196 324 12 146 12 305 0
391 -24 164 -127 270 -315 324 -53 15 -135 17 -680 22 -489 5 -625 9 -643 19
-36 21 -55 77 -55 162 0 98 25 153 80 171 44 14 902 7 1213 -11 102 -5 208
-11 235 -12 l50 -3 17 125 c25 190 25 193 -19 214 -94 45 -150 48 -883 51
-382 2 -730 -1 -772 -5z"/>
<path d="M13715 3478 c-3 -7 -4 -420 -3 -918 l3 -905 253 -3 252 -2 -2 917 -3
918 -248 3 c-193 2 -249 0 -252 -10z"/>
<path d="M15145 3479 c-140 -16 -224 -50 -302 -122 -53 -49 -87 -111 -111
-204 -15 -60 -17 -129 -17 -588 0 -405 3 -533 14 -580 31 -138 91 -220 198
-273 108 -54 135 -57 543 -57 391 1 571 13 830 56 63 10 118 19 123 19 11 0 8
-243 -4 -300 -14 -68 -48 -106 -112 -126 -43 -14 -112 -18 -412 -21 -486 -6
-734 6 -940 48 -130 26 -159 29 -166 18 -5 -8 -34 -78 -66 -156 -55 -138 -56
-143 -39 -162 65 -72 344 -94 1186 -95 548 -1 611 1 670 17 154 41 271 130
330 250 60 123 60 125 58 1257 l-3 1025 -162 3 -163 2 -60 -30 c-34 -17 -64
-29 -68 -26 -4 2 -82 12 -172 21 -289 28 -991 43 -1155 24z m970 -360 c149 -6
280 -15 293 -20 l23 -9 -3 -525 c-3 -488 -4 -526 -21 -542 -17 -17 -52 -18
-545 -18 l-527 0 -42 23 c-75 40 -73 25 -73 539 0 442 1 459 20 491 40 65 73
72 355 72 138 0 372 -5 520 -11z"/>
<path d="M17427 3483 c-4 -3 -7 -417 -7 -920 l0 -913 250 0 250 0 0 720 c0
711 0 720 20 740 20 20 29 21 553 18 510 -3 533 -4 565 -23 18 -11 41 -38 52
-60 19 -40 20 -64 20 -718 l0 -677 250 0 251 0 -3 743 -4 742 -23 63 c-13 35
-37 84 -55 110 -37 56 -135 125 -209 147 -184 55 -865 38 -1307 -34 l-113 -18
-89 44 -89 43 -153 0 c-84 0 -156 -3 -159 -7z"/>
<path d="M20520 3483 c-146 -14 -246 -50 -323 -114 -46 -38 -76 -83 -108 -164
l-24 -60 -3 -539 c-2 -321 1 -564 7 -602 27 -173 136 -291 311 -335 44 -11
191 -14 750 -14 711 0 806 4 973 42 63 14 127 51 127 74 0 5 -37 68 -82 140
l-81 132 -121 -7 c-407 -21 -558 -26 -886 -28 -399 -3 -414 -2 -466 53 l-29
30 -3 150 c-2 82 1 149 5 149 5 0 110 -7 234 -16 166 -13 372 -17 799 -18
l575 -1 3 360 c2 295 0 373 -13 430 -48 219 -196 309 -545 335 -116 9 -1021
11 -1100 3z m1049 -363 c104 -15 105 -17 109 -230 l3 -180 -560 0 -561 0 0
151 c0 193 12 224 97 255 45 16 806 20 912 4z"/>
</g>
</svg>
